<?xml version="1.0" encoding="utf-8"?>
<!-- Generator: Adobe Illustrator 16.0.0, SVG Export Plug-In . SVG Version: 6.00 Build 0)  -->
<!DOCTYPE svg PUBLIC "-//W3C//DTD SVG 1.1//EN" "http://www.w3.org/Graphics/SVG/1.1/DTD/svg11.dtd">
<svg version="1.1" id="Isolation_Mode" xmlns="http://www.w3.org/2000/svg" xmlns:xlink="http://www.w3.org/1999/xlink" x="0px"
	 y="0px" width="88.188px" height="88.486px" viewBox="0 0 88.188 88.486" enable-background="new 0 0 88.188 88.486"
	 xml:space="preserve">
<path fill="#FFFFFF" d="M87.164,28.714l-1.915-1.277l-36.3-24.199l-4.41-2.939L44.094,0l-0.445,0.298l-4.41,2.939l-36.3,24.199
	l-1.914,1.277L0,29.397v2.256v1.275V57.13v2.94v28.416h2.939v-2.94v-2.777V60.07h11.27v22.698v5.718h2.938v-5.718V60.07h11.269
	v22.698v2.777v2.94h2.939v-2.94V60.07v-2.94H17.147V45.861h53.894V57.13H56.833v2.94v25.476v2.94h2.939v-2.94v-2.777V60.07h11.269
	v22.698v5.718h2.939v-5.718V60.07h11.269v22.698v5.718h2.939V60.07v-2.94V32.929v-1.275v-2.256L87.164,28.714z M73.98,57.13V42.923
	H14.208V57.13H2.939V31.653V30.97l3.385-2.256L44.094,3.533l37.77,25.181l3.385,2.256v0.684V57.13H73.98z"/>
</svg>
