<?xml version="1.0" encoding="utf-8"?>
<!-- Generator: Adobe Illustrator 16.0.0, SVG Export Plug-In . SVG Version: 6.00 Build 0)  -->
<!DOCTYPE svg PUBLIC "-//W3C//DTD SVG 1.1//EN" "http://www.w3.org/Graphics/SVG/1.1/DTD/svg11.dtd">
<svg version="1.1" id="Isolation_Mode" xmlns="http://www.w3.org/2000/svg" xmlns:xlink="http://www.w3.org/1999/xlink" x="0px"
	 y="0px" width="198.425px" height="154.586px" viewBox="0 0 198.425 154.586" enable-background="new 0 0 198.425 154.586"
	 xml:space="preserve">
<g>
	<g>
		<polygon fill="#CB8F2B" points="3.69,113.872 3.69,120.234 13.635,120.234 13.635,123.541 3.69,123.541 3.69,132.58 0,132.58 
			0,110.533 14.698,110.533 14.667,113.872 		"/>
		<g>
			<path fill="#CB8F2B" d="M37.48,123.355c0,5.724-3.608,9.226-9.539,9.226c-5.93,0-9.569-3.502-9.569-9.226v-12.821h3.703v12.821
				c0,3.689,2.29,5.91,5.898,5.91c3.577,0,5.804-2.188,5.804-5.91v-12.821h3.703V123.355z"/>
			<path fill="#CB8F2B" d="M52.669,125.904c-0.318,0.03-0.668,0.03-1.017,0.03h-5.277v6.646h-3.751v-22.047h9.028
				c5.689,0,8.963,2.741,8.963,7.528c0,3.526-1.652,6.015-4.609,7.148l4.991,7.37h-4.259L52.669,125.904z M51.652,122.596
				c3.433,0,5.403-1.447,5.403-4.439c0-2.898-1.97-4.284-5.403-4.284h-5.277v8.724H51.652z"/>
			<polygon fill="#CB8F2B" points="81.598,132.58 69.855,116.77 69.855,132.58 66.142,132.58 66.142,110.533 69.793,110.533 
				81.598,126.376 81.598,110.533 85.25,110.533 85.25,132.58 			"/>
			<rect x="91.864" y="110.533" fill="#CB8F2B" width="3.675" height="22.047"/>
			<polygon fill="#CB8F2B" points="110.605,113.872 110.605,132.58 106.896,132.58 106.896,113.872 99.947,113.872 99.947,110.533 
				117.584,110.533 117.584,113.872 			"/>
			<path fill="#CB8F2B" d="M141.837,121.525c0,6.229-4.974,11.056-11.391,11.056s-11.392-4.826-11.392-11.056
				c0-6.259,4.975-10.991,11.392-10.991S141.837,115.298,141.837,121.525 M122.739,121.525c0,4.329,3.531,7.755,7.737,7.755
				s7.646-3.426,7.646-7.755c0-4.328-3.439-7.69-7.646-7.69C126.239,113.835,122.739,117.197,122.739,121.525"/>
			<polygon fill="#CB8F2B" points="164.637,132.58 159.49,115.385 154.282,132.58 150.5,132.58 143.307,110.533 147.244,110.533 
				152.515,128.454 157.754,110.564 161.351,110.533 166.621,128.454 171.86,110.533 175.643,110.533 168.389,132.58 			"/>
			<polygon fill="#CB8F2B" points="194.773,132.58 183.032,116.77 183.032,132.58 179.317,132.58 179.317,110.533 182.969,110.533 
				194.773,126.376 194.773,110.533 198.425,110.533 198.425,132.58 			"/>
			<polygon fill="#CB8F2B" points="52.936,154.586 52.936,151.385 48.592,151.385 48.592,154.586 47.769,154.586 47.769,147.311 
				48.592,147.311 48.592,150.595 52.936,150.595 52.936,147.311 53.759,147.311 53.759,154.586 			"/>
			<path fill="#CB8F2B" d="M63.063,150.948c0,2.048-1.668,3.681-3.767,3.681c-2.11,0-3.777-1.633-3.777-3.681
				c0-2.059,1.667-3.659,3.777-3.659C61.395,147.289,63.063,148.9,63.063,150.948 M56.352,150.948c0,1.602,1.338,2.879,2.944,2.879
				c1.605,0,2.923-1.277,2.923-2.879c0-1.601-1.318-2.869-2.923-2.869C57.69,148.079,56.352,149.348,56.352,150.948"/>
			<polygon fill="#CB8F2B" points="71.348,154.586 71.337,148.588 68.713,153.816 68.219,153.816 65.604,148.588 65.604,154.586 
				64.822,154.586 64.822,147.311 65.841,147.311 68.476,152.549 71.1,147.311 72.11,147.311 72.11,154.586 			"/>
			<polygon fill="#CB8F2B" points="75.381,148.11 75.381,150.502 79.015,150.502 79.015,151.301 75.381,151.301 75.381,153.797 
				79.582,153.797 79.582,154.587 74.559,154.587 74.559,147.31 79.447,147.31 79.447,148.11 			"/>
			<polygon fill="#CB8F2B" points="85.416,148.11 85.416,150.668 88.782,150.668 88.782,151.468 85.416,151.468 85.416,154.587 
				84.592,154.587 84.592,147.31 89.173,147.31 89.173,148.11 			"/>
			<path fill="#CB8F2B" d="M96.532,151.593c0,1.893-1.132,3.035-3.016,3.035c-1.894,0-3.036-1.143-3.036-3.035v-4.283h0.823v4.283
				c0,1.413,0.844,2.234,2.213,2.234c1.369,0,2.192-0.821,2.192-2.234v-4.283h0.824V151.593z"/>
			<path fill="#CB8F2B" d="M102.026,152.268c-0.153,0.011-0.318,0.022-0.483,0.022h-1.914v2.297h-0.824v-7.277h2.738
				c1.802,0,2.841,0.895,2.841,2.443c0,1.206-0.576,2.016-1.616,2.359l1.688,2.475h-0.937L102.026,152.268z M101.543,151.488
				c1.307,0,2.049-0.582,2.049-1.715c0-1.102-0.742-1.663-2.049-1.663h-1.914v3.378H101.543z"/>
			<polygon fill="#CB8F2B" points="111.649,154.586 107.327,148.744 107.327,154.586 106.503,154.586 106.503,147.311 
				107.357,147.311 111.681,153.162 111.681,147.311 112.494,147.311 112.494,154.586 			"/>
			<rect x="114.942" y="147.311" fill="#CB8F2B" width="0.824" height="7.275"/>
			<path fill="#CB8F2B" d="M122.632,147.954l-0.351,0.78c-0.648-0.437-1.41-0.614-1.986-0.614c-0.926,0-1.533,0.354-1.533,0.968
				c0,1.87,4.055,0.894,4.045,3.534c0,1.217-1.061,1.995-2.604,1.995c-1.049,0-2.079-0.457-2.757-1.111l0.369-0.748
				c0.669,0.654,1.585,1.027,2.398,1.027c1.039,0,1.688-0.426,1.688-1.122c0.011-1.912-4.045-0.895-4.045-3.503
				c0-1.144,0.999-1.882,2.491-1.882C121.18,147.278,122.034,147.55,122.632,147.954"/>
			<polygon fill="#CB8F2B" points="129.918,154.586 129.918,151.385 125.574,151.385 125.574,154.586 124.751,154.586 
				124.751,147.311 125.574,147.311 125.574,150.595 129.918,150.595 129.918,147.311 130.741,147.311 130.741,154.586 			"/>
			<rect x="133.18" y="147.311" fill="#CB8F2B" width="0.824" height="7.275"/>
			<polygon fill="#CB8F2B" points="141.589,154.586 137.267,148.744 137.267,154.586 136.442,154.586 136.442,147.311 
				137.297,147.311 141.62,153.162 141.62,147.311 142.433,147.311 142.433,154.586 			"/>
			<path fill="#CB8F2B" d="M150.635,151.031v2.641c-0.709,0.571-1.708,0.957-2.676,0.957c-2.089,0-3.757-1.633-3.757-3.681
				s1.678-3.659,3.798-3.659c0.999,0,1.967,0.386,2.656,0.998l-0.474,0.623c-0.587-0.529-1.379-0.842-2.183-0.842
				c-1.646,0-2.964,1.279-2.964,2.88c0,1.61,1.327,2.891,2.975,2.891c0.648,0,1.338-0.229,1.894-0.614v-2.193H150.635z"/>
			<path fill="#CB8F2B" d="M142.282,28.713l-1.915-1.276l-36.3-24.2l-4.41-2.94L99.213,0l-0.445,0.297l-4.41,2.94l-36.3,24.2
				l-1.914,1.276l-1.025,0.684v2.256v1.276V57.13v2.94v28.416h2.939v-2.94v-2.777V60.07h11.269v22.698v5.718h2.939v-5.718V60.07
				h11.269v22.698v2.777v2.94h2.939v-2.94V60.07v-2.94H72.266V45.861h53.894V57.13h-14.208v2.94v25.476v2.94h2.939v-2.94v-2.777
				V60.07h11.269v22.698v5.718h2.939v-5.718V60.07h11.269v22.698v5.718h2.939V60.07v-2.94V32.929v-1.276v-2.256L142.282,28.713z
				 M129.099,57.13V42.922H69.327V57.13H58.058V31.653V30.97l3.385-2.257l37.77-25.18l37.77,25.18l3.385,2.257v0.683V57.13H129.099z
				"/>
		</g>
	</g>
</g>
</svg>
