<?xml version="1.0" encoding="utf-8"?>
<!-- Generator: Adobe Illustrator 16.0.0, SVG Export Plug-In . SVG Version: 6.00 Build 0)  -->
<!DOCTYPE svg PUBLIC "-//W3C//DTD SVG 1.1//EN" "http://www.w3.org/Graphics/SVG/1.1/DTD/svg11.dtd">
<svg version="1.1" id="Isolation_Mode" xmlns="http://www.w3.org/2000/svg" xmlns:xlink="http://www.w3.org/1999/xlink" x="0px"
	 y="0px" width="841.89px" height="595.28px" viewBox="0 0 841.89 595.28" enable-background="new 0 0 841.89 595.28"
	 xml:space="preserve">
<path fill="#CB8F2B" d="M394.125,281.04l-1.915-1.276l-36.3-24.2l-4.41-2.94l-0.444-0.297l-0.445,0.297l-4.41,2.94l-36.3,24.2
	l-1.914,1.276l-1.025,0.684v2.256v1.276v24.201v2.94v28.416h2.939v-2.94v-2.777v-22.698h11.269v22.698v5.718h2.939v-5.718v-22.698
	h11.269v22.698v2.777v2.94h2.939v-2.94v-25.476v-2.94h-14.208v-11.269h53.894v11.269h-14.208v2.94v25.476v2.94h2.939v-2.94v-2.777
	v-22.698h11.269v22.698v5.718h2.939v-5.718v-22.698h11.269v22.698v5.718h2.939v-28.416v-2.94v-24.201v-1.276v-2.256L394.125,281.04z
	 M380.941,309.456v-14.208h-59.772v14.208H309.9v-25.477v-0.683l3.385-2.257l37.77-25.18l37.77,25.18l3.385,2.257v0.683v25.477
	H380.941z"/>
</svg>
